<svg width="21" height="16" viewBox="0 0 21 16" fill="none" xmlns="http://www.w3.org/2000/svg">
<path d="M10.2485 9.50614C10.0139 9.50654 9.7854 9.4317 9.59655 9.29262L0.693448 2.72288C0.57761 2.63733 0.47977 2.52981 0.405515 2.40647C0.33126 2.28313 0.282043 2.14638 0.260675 2.00404C0.217521 1.71655 0.290421 1.42372 0.463337 1.18994C0.636253 0.956173 0.895022 0.800615 1.18272 0.757493C1.47041 0.71437 1.76347 0.787216 1.99741 0.960004L10.2485 7.04248L18.4997 0.960004C18.6155 0.874448 18.7471 0.812529 18.8869 0.777782C19.0266 0.743035 19.1719 0.736141 19.3144 0.757493C19.4568 0.778844 19.5937 0.828025 19.7171 0.902225C19.8405 0.976425 19.9481 1.07419 20.0337 1.18994C20.1194 1.3057 20.1813 1.43717 20.2161 1.57685C20.2509 1.71653 20.2578 1.86169 20.2364 2.00404C20.215 2.14638 20.1658 2.28313 20.0916 2.40647C20.0173 2.52981 19.9195 2.63733 19.8036 2.72288L10.9005 9.29262C10.7117 9.4317 10.4831 9.50654 10.2485 9.50614Z" fill="#7AE229"/>
<path d="M10.2485 15.2547C10.0139 15.2551 9.7854 15.1802 9.59655 15.0412L0.693448 8.47142C0.459502 8.29863 0.30383 8.04005 0.260675 7.75257C0.217521 7.46509 0.290421 7.17225 0.463337 6.93848C0.636253 6.70471 0.895021 6.54915 1.18272 6.50603C1.47041 6.46291 1.76347 6.53575 1.99741 6.70854L10.2485 12.791L18.4997 6.70854C18.7336 6.53575 19.0267 6.46291 19.3144 6.50603C19.602 6.54915 19.8608 6.70471 20.0337 6.93848C20.2066 7.17225 20.2795 7.46509 20.2364 7.75257C20.1932 8.04005 20.0376 8.29863 19.8036 8.47142L10.9005 15.0412C10.7117 15.1802 10.4831 15.2551 10.2485 15.2547Z" fill="#7AE229"/>
</svg>
