<svg width="18" height="18" viewBox="0 0 18 18" fill="none" xmlns="http://www.w3.org/2000/svg">
<path d="M18 9.25C18 11.5706 17.0781 13.7962 15.4372 15.4372C13.7962 17.0781 11.5706 18 9.25 18C6.92936 18 4.70376 17.0781 3.06282 15.4372C1.42187 13.7962 0.5 11.5706 0.5 9.25C0.5 6.92936 1.42187 4.70376 3.06282 3.06282C4.70376 1.42187 6.92936 0.5 9.25 0.5C11.5706 0.5 13.7962 1.42187 15.4372 3.06282C17.0781 4.70376 18 6.92936 18 9.25ZM13.0175 5.0525C12.8767 4.9681 12.7206 4.91227 12.5582 4.8882C12.3957 4.86413 12.2302 4.87229 12.0709 4.91222C11.9117 4.95215 11.7618 5.02307 11.63 5.12092C11.4981 5.21877 11.3869 5.34164 11.3025 5.4825L8.3775 10.3575L7.01 8.99C6.77528 8.75528 6.45694 8.62342 6.125 8.62342C5.79306 8.62342 5.47472 8.75528 5.24 8.99C5.00528 9.22472 4.87342 9.54306 4.87342 9.875C4.87342 10.2069 5.00528 10.5253 5.24 10.76L7.175 12.6925C7.37641 12.8943 7.62118 13.0475 7.8907 13.1405C8.16022 13.2334 8.4474 13.2637 8.73039 13.229C9.01337 13.1943 9.28472 13.0955 9.52378 12.9402C9.76285 12.7848 9.96334 12.577 10.11 12.3325L13.4475 6.7675C13.5319 6.62667 13.5877 6.47058 13.6118 6.30817C13.6359 6.14575 13.6277 5.98018 13.5878 5.82092C13.5478 5.66166 13.4769 5.51183 13.3791 5.37998C13.2812 5.24813 13.1584 5.13685 13.0175 5.0525Z" fill="white"/>
</svg>
