<svg width="40" height="33" viewBox="0 0 40 33" fill="none" xmlns="http://www.w3.org/2000/svg">
<path d="M39.91 1.715C40.0009 1.48784 40.0232 1.23899 39.974 0.999302C39.9248 0.759611 39.8064 0.539621 39.6334 0.366605C39.4604 0.193589 39.2404 0.0751553 39.0007 0.0259867C38.761 -0.023182 38.5121 -0.000923203 38.285 0.0900035L1.91748 14.6375C1.5972 14.7657 1.3185 14.9798 1.11206 15.2562C0.905608 15.5326 0.779416 15.8605 0.747367 16.204C0.715318 16.5475 0.778656 16.8932 0.930409 17.203C1.08216 17.5128 1.31645 17.7748 1.60748 17.96L14.095 25.905L17.9225 31.92C18.1032 32.1929 18.3839 32.3841 18.7041 32.4523C19.0242 32.5205 19.3584 32.4605 19.6347 32.285C19.9111 32.1095 20.1076 31.8325 20.1819 31.5137C20.2563 31.1949 20.2026 30.8597 20.0325 30.58L16.5925 25.175L35.3275 6.44L30.59 18.285C30.5249 18.4381 30.491 18.6026 30.4903 18.7689C30.4896 18.9353 30.5222 19.1001 30.586 19.2537C30.6498 19.4073 30.7436 19.5466 30.862 19.6635C30.9803 19.7804 31.1208 19.8725 31.2752 19.9344C31.4296 19.9963 31.5948 20.0267 31.7611 20.0239C31.9274 20.0212 32.0915 19.9852 32.2438 19.9182C32.396 19.8512 32.5334 19.7545 32.6478 19.6338C32.7622 19.513 32.8513 19.3706 32.91 19.215L39.91 1.715ZM33.56 4.6725L14.825 23.4075L3.97748 16.505L33.56 4.6725Z" fill="white"/>
</svg>
