<svg width="31" height="22" viewBox="0 0 31 22" fill="none" xmlns="http://www.w3.org/2000/svg">
<path d="M24.8291 13.6667C24.5132 13.6667 24.2497 13.5602 24.0386 13.3472C23.8275 13.1342 23.7219 12.8704 23.7219 12.5556V9.44442H20.6108C20.296 9.44442 20.0321 9.33757 19.8191 9.12385C19.6062 8.91014 19.4997 8.64533 19.4997 8.32942C19.4997 8.01351 19.6062 7.75 19.8191 7.53889C20.0321 7.32778 20.296 7.22222 20.6108 7.22222H23.7219V4.11109C23.7219 3.79629 23.8288 3.5324 24.0425 3.31942C24.2562 3.10647 24.521 2.99999 24.8369 2.99999C25.1528 2.99999 25.4163 3.10647 25.6274 3.31942C25.8386 3.5324 25.9441 3.79629 25.9441 4.11109V7.22222H29.0552C29.37 7.22222 29.6339 7.32908 29.8469 7.54279C30.0599 7.7565 30.1663 8.02131 30.1663 8.33722C30.1663 8.65313 30.0599 8.91664 29.8469 9.12776C29.6339 9.33887 29.37 9.44442 29.0552 9.44442H25.9441V12.5556C25.9441 12.8704 25.8373 13.1342 25.6235 13.3472C25.4098 13.5602 25.145 13.6667 24.8291 13.6667ZM11.4997 10.9778C10.033 10.9778 8.81449 10.4926 7.84411 9.52222C6.87375 8.55184 6.38858 7.33332 6.38858 5.86665C6.38858 4.39999 6.87375 3.18148 7.84411 2.21112C8.81449 1.24074 10.033 0.755554 11.4997 0.755554C12.9663 0.755554 14.1849 1.24074 15.1552 2.21112C16.1256 3.18148 16.6108 4.39999 16.6108 5.86665C16.6108 7.33332 16.1256 8.55184 15.1552 9.52222C14.1849 10.4926 12.9663 10.9778 11.4997 10.9778ZM1.94411 21.6667C1.62931 21.6667 1.36542 21.5602 1.15244 21.3472C0.939486 21.1342 0.833008 20.8704 0.833008 20.5556V18.3333C0.833008 17.563 1.03115 16.8611 1.42744 16.2278C1.82375 15.5945 2.36635 15.1185 3.05524 14.8C4.62562 14.0815 6.07998 13.5648 7.41831 13.25C8.75666 12.9352 10.1159 12.7778 11.4961 12.7778C12.8763 12.7778 14.2367 12.9352 15.5774 13.25C16.9182 13.5648 18.3663 14.0815 19.9219 14.8C20.6108 15.1333 21.1571 15.613 21.5608 16.2389C21.9645 16.8648 22.1663 17.563 22.1663 18.3333V20.5556C22.1663 20.8704 22.0599 21.1342 21.8469 21.3472C21.6339 21.5602 21.37 21.6667 21.0552 21.6667H1.94411ZM3.05521 19.4445H19.9441V18.3333C19.9441 18.0148 19.8645 17.7148 19.7052 17.4333C19.546 17.1518 19.3071 16.9407 18.9886 16.8C17.5515 16.0963 16.2626 15.6204 15.1219 15.3722C13.9812 15.1241 12.7737 15 11.4997 15C10.2256 15 9.0182 15.1278 7.87744 15.3833C6.73671 15.6389 5.44042 16.1111 3.98857 16.8C3.69966 16.9407 3.47187 17.1518 3.30521 17.4333C3.13854 17.7148 3.05521 18.0148 3.05521 18.3333V19.4445ZM11.4997 8.75555C12.3219 8.75555 13.0089 8.47963 13.5608 7.92779C14.1126 7.37592 14.3886 6.68888 14.3886 5.86665C14.3886 5.04443 14.1126 4.3574 13.5608 3.80555C13.0089 3.25369 12.3219 2.97775 11.4997 2.97775C10.6775 2.97775 9.99042 3.25369 9.43857 3.80555C8.88671 4.3574 8.61077 5.04443 8.61077 5.86665C8.61077 6.68888 8.88671 7.37592 9.43857 7.92779C9.99042 8.47963 10.6775 8.75555 11.4997 8.75555Z" fill="white"/>
</svg>
